<?xml version="1.0" standalone="no"?><!DOCTYPE svg PUBLIC "-//W3C//DTD SVG 1.1//EN" "http://www.w3.org/Graphics/SVG/1.1/DTD/svg11.dtd"><svg t="1628768160201" class="icon" viewBox="0 0 1024 1024" version="1.1" xmlns="http://www.w3.org/2000/svg" p-id="2351" width="2133" height="2133" xmlns:xlink="http://www.w3.org/1999/xlink"><defs><style type="text/css"></style></defs><path d="M782 469.6m-122.5 0a122.5 122.5 0 1 0 245 0 122.5 122.5 0 1 0-245 0Z" fill="#FF7517" p-id="2352"></path><path d="M803.4 790.7c-46.9 0-90.9-18.3-124-51.4l-12.1-12.1c-31-31-84.9-31-115.8 0l-11 11c-68.4 68.4-179.7 68.4-248.1 0l-13.9-13.9c-31.9-31.9-83.8-31.9-115.8 0-18.3 18.3-47.9 18.3-66.2 0s-18.3-47.9 0-66.2c68.4-68.4 179.7-68.4 248.1 0l13.9 13.9c31.9 31.9 83.9 31.9 115.8 0l11-11c66.3-66.3 181.8-66.3 248.1 0l12.1 12.1c31 31 84.9 31 115.8 0 18.2-18.3 47.9-18.3 66.2 0 18.3 18.3 18.3 47.9 0 66.2-33.2 33.2-77.2 51.4-124.1 51.4z" fill="#FF7517" p-id="2353"></path><path d="M287 312.2l166 59.5 26.2 50.2L211.3 563c48-2.5 96.7 13.9 133.3 50.4l13.9 13.9c31.9 31.9 83.9 31.9 115.8 0l11-11c46.1-46.1 115.9-59.4 176.5-41.3l-88-168-47.1-92c-5-9.5-13.5-16.6-23.7-19.8l-191.8-60.1c-21.2-6.6-44 5.2-50.6 26.5-6.7 21.3 5.1 44 26.4 50.6z" fill="#FF7517" p-id="2354"></path></svg>